<svg xmlns="http://www.w3.org/2000/svg" width="29" height="17" viewBox="0 0 29 17">
    <path fill="#2A2A2A" fill-rule="nonzero" d="M23.247 16.509c.625 0 1.157-.22 1.597-.66.44-.439.659-.971.659-1.596v-2.241h.747c.625 0 1.157-.22 1.597-.66.44-.439.659-.971.659-1.596V6.753c0-.615-.22-1.143-.66-1.582-.439-.44-.971-.66-1.596-.66h-.747V2.257c0-.625-.22-1.157-.66-1.597C24.405.22 23.874 0 23.248 0H2.256C1.63 0 1.099.22.659.66.22 1.098 0 1.63 0 2.255v11.997c0 .625.22 1.157.66 1.597.439.44.97.659 1.596.659h20.991zm0-1.509H2.256a.736.736 0 0 1-.542-.22.72.72 0 0 1-.22-.527V2.256a.72.72 0 0 1 .22-.527.736.736 0 0 1 .542-.22h20.991a.72.72 0 0 1 .527.22.72.72 0 0 1 .22.527v11.997a.72.72 0 0 1-.22.527.72.72 0 0 1-.527.22zM3.75 13.506a.72.72 0 0 0 .527-.22.72.72 0 0 0 .22-.527V3.75a.72.72 0 0 0-.22-.527.72.72 0 0 0-.527-.22.72.72 0 0 0-.527.22.72.72 0 0 0-.22.527v9.009c0 .205.073.38.22.527a.72.72 0 0 0 .527.22zm3.003 0a.72.72 0 0 0 .527-.22.72.72 0 0 0 .22-.527V3.75a.72.72 0 0 0-.22-.527.72.72 0 0 0-.527-.22.72.72 0 0 0-.527.22.72.72 0 0 0-.22.527v9.009c0 .205.073.38.22.527a.72.72 0 0 0 .527.22zm3.003 0a.72.72 0 0 0 .527-.22.72.72 0 0 0 .22-.527V3.75a.72.72 0 0 0-.22-.527.72.72 0 0 0-.527-.22.736.736 0 0 0-.542.22.72.72 0 0 0-.22.527v9.009c0 .205.073.38.22.527.146.147.327.22.542.22zm2.988 0a.736.736 0 0 0 .542-.22.72.72 0 0 0 .22-.527V3.75a.72.72 0 0 0-.22-.527.736.736 0 0 0-.542-.22.72.72 0 0 0-.527.22.72.72 0 0 0-.22.527v9.009c0 .205.073.38.22.527a.72.72 0 0 0 .527.22zm3.003 0a.72.72 0 0 0 .527-.22.72.72 0 0 0 .22-.527V3.75a.72.72 0 0 0-.22-.527.72.72 0 0 0-.527-.22.72.72 0 0 0-.527.22.72.72 0 0 0-.22.527v9.009c0 .205.073.38.22.527a.72.72 0 0 0 .527.22zm3.003 0a.72.72 0 0 0 .527-.22.72.72 0 0 0 .22-.527V3.75a.72.72 0 0 0-.22-.527.72.72 0 0 0-.527-.22.72.72 0 0 0-.527.22.72.72 0 0 0-.22.527v9.009c0 .205.073.38.22.527a.72.72 0 0 0 .527.22zm3.003 0a.72.72 0 0 0 .527-.22.72.72 0 0 0 .22-.527V3.75a.72.72 0 0 0-.22-.527.72.72 0 0 0-.527-.22.72.72 0 0 0-.527.22.72.72 0 0 0-.22.527v9.009c0 .205.073.38.22.527a.72.72 0 0 0 .527.22zm4.497-3.003h-.747V6.006h.747a.72.72 0 0 1 .527.22.72.72 0 0 1 .22.527v3.003a.72.72 0 0 1-.22.527.72.72 0 0 1-.527.22z"/>
</svg>
