<svg xmlns="http://www.w3.org/2000/svg" width="24" height="30" viewBox="0 0 24 30">
    <path fill="#006BA6" d="M18.501 30c.928 0 1.74-.164 2.44-.49.697-.328 1.232-.8 1.603-1.414.361-.625.523-1.321.484-2.088-.04-.766-.284-1.56-.733-2.38L15.498 11.06V3.91c.45-.185.81-.415 1.084-.688.274-.274.41-.596.41-.967 0-.39-.151-.728-.454-1.01-.302-.284-.7-.516-1.194-.697-.493-.18-1.052-.317-1.677-.41C13.042.046 12.403 0 11.748 0c-.654 0-1.296.046-1.926.14-.63.092-1.191.229-1.685.41-.493.18-.89.412-1.193.695-.303.283-.455.62-.455 1.01 0 .372.137.694.41.968.274.273.64.503 1.1.688v7.149L1.186 23.628c-.44.82-.681 1.614-.725 2.38-.044.767.12 1.463.49 2.088.371.615.904 1.086 1.597 1.413.693.327 1.509.491 2.446.491h13.506zM11.748 3.003c-1.035 0-1.865-.09-2.49-.271-.625-.18-1.025-.34-1.201-.476.176-.137.576-.296 1.201-.476.625-.18 1.455-.271 2.49-.271 1.035 0 1.863.09 2.483.27.62.181 1.018.34 1.194.477-.176.137-.574.295-1.194.476-.62.18-1.448.27-2.483.27zm7.427 18.003c-.547-.01-1.03-.127-1.45-.352-.42-.224-.874-.547-1.363-.966-.312-.274-.668-.567-1.069-.88-.4-.312-.835-.61-1.304-.893-.01-.41-.095-.791-.256-1.143-.161-.351-.378-.659-.652-.922-.273-.264-.588-.472-.945-.623-.356-.151-.734-.227-1.135-.227-.576 0-1.096.146-1.56.44-.464.292-.823.673-1.077 1.142-.322.04-.642.095-.959.168-.317.074-.627.164-.93.271l2.93-5.405c.01-.01.017-.022.021-.036.005-.015.008-.027.008-.037v-.007c0-.005.005-.008.014-.008 0-.01.003-.02.008-.029.005-.01.007-.02.007-.03v-.007c0-.004.005-.012.015-.022v-.029l.002-.026.01-.032.002-.015V4.32c.352.059.718.105 1.099.14.38.034.767.05 1.157.05.381 0 .762-.016 1.143-.05.38-.035.747-.081 1.098-.14v6.929c0 .02.003.034.008.044l.005.018.002.026v.073c.01 0 .015.003.015.007v.044c0 .005.005.008.014.008 0 .01.003.022.008.036l.005.02.002.017c.01.01.017.022.022.037.005.014.012.026.022.036l5.083 9.39zm-8.174-1.494c-.42 0-.776-.147-1.07-.44-.292-.293-.439-.65-.439-1.07 0-.41.147-.76.44-1.054.293-.293.65-.44 1.07-.44.41 0 .76.147 1.054.44.293.293.44.645.44 1.055 0 .42-.147.776-.44 1.07-.293.292-.645.439-1.055.439zm7.5 8.994H4.995c-.664 0-1.233-.103-1.706-.308-.474-.205-.823-.498-1.048-.879-.224-.38-.315-.827-.27-1.34.043-.513.226-1.062.549-1.648l2.695-4.98c.42-.293.864-.54 1.333-.74.469-.2.952-.354 1.45-.462.02.4.113.774.279 1.121.166.347.383.65.651.908.269.259.581.462.938.608.356.147.735.22 1.135.22.557 0 1.07-.144 1.538-.432.469-.288.83-.662 1.084-1.12.332.224.65.456.952.695.303.24.572.466.806.681.606.518 1.204.925 1.794 1.223.591.298 1.282.447 2.073.447.117 0 .235-.002.352-.007.117-.005.24-.017.366-.037l1.01 1.875c.313.586.494 1.135.543 1.648.049.513-.04.96-.264 1.34-.234.381-.588.674-1.062.88-.474.204-1.038.307-1.692.307zm-11.25-1.494c.615 0 1.143-.22 1.582-.66.44-.439.66-.971.66-1.596 0-.625-.22-1.157-.66-1.597-.44-.44-.967-.659-1.582-.659-.625 0-1.157.22-1.597.66-.439.439-.659.97-.659 1.596 0 .625.22 1.157.66 1.597.439.439.971.659 1.596.659zm4.497-3.003c.098 0 .193-.02.286-.059.093-.039.173-.093.242-.16.068-.07.122-.15.16-.243.04-.092.06-.188.06-.285 0-.108-.02-.205-.06-.293-.038-.088-.092-.171-.16-.25-.069-.068-.15-.121-.242-.16-.093-.04-.188-.059-.286-.059-.097 0-.193.02-.285.059-.093.039-.174.092-.242.16-.078.079-.134.162-.169.25-.034.088-.05.185-.05.293 0 .097.016.193.05.285.035.093.09.174.169.242.068.068.149.122.242.161.092.04.188.059.285.059zm-4.497 1.494c-.215 0-.395-.073-.542-.22-.146-.146-.22-.322-.22-.527 0-.205.074-.381.22-.527.147-.147.327-.22.542-.22.205 0 .381.073.528.22.146.146.22.322.22.527 0 .205-.074.38-.22.527-.147.147-.323.22-.528.22z"/>
</svg>
