<svg xmlns="http://www.w3.org/2000/svg" width="29" height="29" viewBox="0 0 29 29">
    <path fill="#2A2A2A" fill-rule="nonzero" d="M14.253 28.491c.947 0 1.88-.09 2.798-.27.918-.181 1.804-.448 2.658-.8.855-.35 1.67-.788 2.447-1.31a14.596 14.596 0 0 0 2.175-1.795 13.523 13.523 0 0 0 1.787-2.168 14.37 14.37 0 0 0 1.304-2.446c.351-.85.62-1.733.806-2.651.185-.918.278-1.85.278-2.798 0-.957-.093-1.892-.278-2.805a14.586 14.586 0 0 0-.806-2.652 14.011 14.011 0 0 0-1.304-2.446 14.252 14.252 0 0 0-1.787-2.175 14.252 14.252 0 0 0-4.622-3.098A13.819 13.819 0 0 0 17.051.27C16.133.091 15.2 0 14.253 0c-.957 0-1.892.09-2.805.271-.913.18-1.797.45-2.652.806a14.252 14.252 0 0 0-4.622 3.098 14.252 14.252 0 0 0-3.903 7.273C.091 12.36 0 13.296 0 14.253c0 .947.09 1.88.271 2.798.18.918.45 1.802.806 2.651.356.85.793 1.665 1.31 2.446a13.523 13.523 0 0 0 1.788 2.168 14.596 14.596 0 0 0 2.175 1.795c.776.522 1.592.96 2.446 1.31a14.19 14.19 0 0 0 2.652.8c.913.18 1.848.27 2.805.27zm0-1.494c-1.758 0-3.41-.334-4.959-1.003a12.997 12.997 0 0 1-4.057-2.732 12.847 12.847 0 0 1-2.74-4.05c-.668-1.548-1.003-3.201-1.003-4.96 0-1.757.335-3.41 1.004-4.958a12.935 12.935 0 0 1 2.739-4.057 12.935 12.935 0 0 1 4.057-2.74c1.548-.668 3.201-1.003 4.959-1.003 1.758 0 3.41.335 4.958 1.004a12.847 12.847 0 0 1 4.05 2.739 12.997 12.997 0 0 1 2.733 4.057c.669 1.548 1.003 3.201 1.003 4.959 0 1.758-.334 3.41-1.003 4.958a12.908 12.908 0 0 1-2.732 4.05 12.908 12.908 0 0 1-4.05 2.733c-1.548.669-3.201 1.003-4.96 1.003zM14.29 15l.023-.004.028-.01h.036a.05.05 0 0 0 .037-.015h.015a.12.12 0 0 0 .036-.008.12.12 0 0 1 .037-.007h.007c.005 0 .008-.005.008-.015a.12.12 0 0 0 .073-.029h.014l.008-.007.007-.008 7.793-4.497a.738.738 0 0 0 .359-.461.694.694 0 0 0-.08-.564.687.687 0 0 0-.447-.359.734.734 0 0 0-.579.08l-7.383 4.263L8.54 9.331a.755.755 0 0 0-1.055.19.7.7 0 0 0-.117.557c.04.205.142.366.308.484l6.137 4.306h.015l.015.007.014.008.015.014c.01 0 .017.003.022.008.005.005.012.007.022.007v.015c.01 0 .02.002.03.007.01.005.019.007.029.007l.007.008c.005.005.012.007.022.007h.015l.007.007c.005.005.012.008.022.008h.014c.01 0 .018.002.022.007l.008.007h.066c.005 0 .012.005.022.015h.11z"/>
</svg>
