<svg xmlns="http://www.w3.org/2000/svg" width="30" height="30" viewBox="0 0 30 30">
    <path fill="#2A2A2A" fill-rule="nonzero" d="M12.158 29.019c.547 0 1.092-.025 1.634-.074a15.848 15.848 0 0 0 3.178-.615 16.235 16.235 0 0 0 1.531-.542c.527-.215 1.04-.452 1.538-.71.498-.26.98-.545 1.443-.857a17.85 17.85 0 0 0 1.348-1.004 19.69 19.69 0 0 0 1.267-1.135c.4-.4.778-.818 1.135-1.252.356-.435.688-.887.996-1.355a17.944 17.944 0 0 0 1.575-2.974c.205-.508.383-1.02.534-1.538a17.782 17.782 0 0 0 .615-3.186 16.552 16.552 0 0 0 0-3.26 17.877 17.877 0 0 0-.615-3.178c-.151-.518-.33-1.03-.534-1.538a16.237 16.237 0 0 0-.718-1.531 18.69 18.69 0 0 0-.857-1.443c-.308-.469-.64-.92-.996-1.355A17.167 17.167 0 0 0 24.097.22a.986.986 0 0 0-.25-.161.73.73 0 0 0-.579 0 .749.749 0 0 0-.24.16L.22 23.028a.749.749 0 0 0 0 1.055c.41.4.832.779 1.267 1.135.434.357.884.691 1.347 1.004.464.312.945.598 1.443.857.498.258 1.011.495 1.538.71a16.235 16.235 0 0 0 3.106.93c.527.103 1.062.178 1.604.227.542.05 1.086.074 1.633.074zm0-1.495c-.967 0-1.914-.087-2.842-.263a15.543 15.543 0 0 1-5.222-2.014 14.701 14.701 0 0 1-2.263-1.707l2.124-2.124c.566.498 1.17.942 1.81 1.333.639.39 1.305.715 1.999.974.693.259 1.408.457 2.146.593a12.63 12.63 0 0 0 4.688-.03 11.92 11.92 0 0 0 2.299-.695 12.706 12.706 0 0 0 2.124-1.135c.679-.45 1.306-.967 1.882-1.553a12.381 12.381 0 0 0 2.688-4.013c.308-.743.542-1.512.703-2.307a12.26 12.26 0 0 0 .242-2.44v-.183l-.004-.093-.01-.09a12.12 12.12 0 0 0-.25-2.153 12.63 12.63 0 0 0-.607-2.043 11.954 11.954 0 0 0-.953-1.905 12.25 12.25 0 0 0-1.296-1.736l2.139-2.124c.634.713 1.2 1.47 1.699 2.27.498.802.915 1.64 1.252 2.513a15.5 15.5 0 0 1 1.033 5.545c0 1.035-.1 2.045-.3 3.032-.2.986-.491 1.94-.872 2.864a15.188 15.188 0 0 1-3.34 4.987 15.462 15.462 0 0 1-4.98 3.34 15.04 15.04 0 0 1-2.864.864c-.991.196-2 .293-3.025.293zm10.81-16.494h-6.064a5.635 5.635 0 0 0-.315-.915 4.41 4.41 0 0 0-.49-.843L20.36 5.01c.371.42.706.866 1.004 1.34.298.474.556.962.776 1.465.22.503.4 1.023.542 1.56.142.537.237 1.089.286 1.655zm-11.557 4.402A3.413 3.413 0 0 1 10.356 15l4.659-4.644c.205.323.349.67.432 1.04a3.378 3.378 0 0 1-.234 2.19 3.244 3.244 0 0 1-.505.772l-.162.173a3.26 3.26 0 0 1-.952.667 3.388 3.388 0 0 1-2.183.234zm8.95 3.86L16.1 15.029c.273-.38.485-.783.637-1.208.151-.425.246-.857.285-1.297h6.006a10.728 10.728 0 0 1-.747 3.619 11.022 11.022 0 0 1-.82 1.648 10.663 10.663 0 0 1-1.099 1.501zm-9.33 3.662a10.12 10.12 0 0 1-1.605-.278 10.504 10.504 0 0 1-1.56-.535 11.255 11.255 0 0 1-1.48-.776 10.09 10.09 0 0 1-1.362-1.018l4.263-4.263c.264.195.542.361.835.498.293.137.596.24.908.308v6.064zm1.508.059v-6.006a4.63 4.63 0 0 0 1.296-.278 4.794 4.794 0 0 0 1.194-.645l4.263 4.263c-.479.43-.986.805-1.523 1.128-.538.322-1.094.593-1.67.813-.577.22-1.162.39-1.758.512-.596.122-1.196.193-1.802.213z"/>
</svg>
