<svg width="529" height="80" viewBox="0 0 529 80" fill="none" xmlns="http://www.w3.org/2000/svg">
<g clip-path="url(#clip0)">
<path d="M79.8 0.200001H0.200012V79.8H79.8V0.200001Z" fill="white"/>
<path d="M0 80H80V1.90735e-06H0V80ZM15 47H25V55H15V47ZM33 65H15V57H33V65ZM65 45H45V65H35V45H15V35H35V15H45V35H65V45Z" fill="#0094E5"/>
<path d="M111.58 27.94V51.74H118.48C125.83 51.74 130.62 46.79 130.62 39.94V39.84C130.62 32.99 125.83 27.94 118.48 27.94H111.58ZM105.43 22.34H118.43C129.43 22.34 137.02 29.89 137.02 39.74V39.84C137.02 49.69 129.42 57.34 118.43 57.34H105.43V22.34Z" fill="black"/>
<path d="M151.02 22.34H144.87V57.33H151.02V22.34Z" fill="black"/>
<path d="M158.82 39.94V39.84C158.784 37.4573 159.225 35.0915 160.119 32.8824C161.013 30.6733 162.34 28.6657 164.023 26.9784C165.705 25.291 167.709 23.9581 169.916 23.0583C172.123 22.1586 174.487 21.7103 176.87 21.74C182.96 21.74 186.71 23.44 190.31 26.49L186.41 31.14C183.754 28.6774 180.241 27.3497 176.62 27.44C170.17 27.44 165.27 33.04 165.27 39.74V39.84C165.27 47.04 170.02 52.34 177.17 52.34C180.193 52.3723 183.148 51.4445 185.61 49.69V43.19H176.64V37.79H191.53V52.49C187.479 56.0004 182.3 57.935 176.94 57.94C165.94 57.94 158.79 50.14 158.79 39.94" fill="black"/>
<path d="M206.06 22.34H199.91V57.33H206.06V22.34Z" fill="black"/>
<path d="M223.96 28.04H212.81V22.34H241.25V28.04H230.1V57.33H223.96V28.04Z" fill="black"/>
<path d="M264.4 43.44L258.4 29.44L252.4 43.44H264.4ZM255.64 22.09H261.34L276.73 57.34H270.24L266.64 48.89H250.1L246.5 57.34H240.2L255.64 22.09Z" fill="black"/>
<path d="M282.69 22.34H288.84V51.73H307.24V57.33H282.69V22.34Z" fill="black"/>
<path d="M328.7 30.31H318.18V22.34H348.2V30.31H337.65V57.34H328.7V30.31Z" fill="black"/>
<path d="M369.25 39.21C372.69 39.21 374.71 37.47 374.71 34.76V34.66C374.71 31.66 372.57 30.16 369.16 30.16H362.29V39.16L369.25 39.21ZM353.34 22.34H369.69C374.69 22.34 378.3 23.69 380.69 26.01C381.721 27.0829 382.525 28.354 383.051 29.7462C383.577 31.1385 383.814 32.6231 383.75 34.11V34.21C383.847 36.5578 383.19 38.8749 381.874 40.822C380.559 42.7691 378.654 44.2438 376.44 45.03L384.86 57.34H374.47L367.25 46.56H362.25V57.39H353.34V22.34Z" fill="black"/>
<path d="M389.64 22.34H417.13V30.03H398.51V36.04H415.19V43.38H398.51V49.61H417.38V57.33H389.64V22.34Z" fill="black"/>
<path d="M423.34 22.34H431.66L446.81 41.98V22.34H455.66V57.33H447.93L432.19 36.99V57.33H423.34V22.34Z" fill="black"/>
<path d="M471.91 30.29V49.36H476.64C482.64 49.36 486.64 45.76 486.64 39.91V39.81C486.64 33.98 482.64 30.29 476.64 30.29H471.91ZM462.96 22.29H476.55C488.45 22.29 495.83 29.62 495.83 39.62V39.73C495.83 49.73 488.39 57.29 476.42 57.29H462.96V22.29Z" fill="black"/>
<path d="M498.78 52.18L503.86 46.1C506.923 48.7452 510.814 50.2378 514.86 50.32C517.7 50.32 519.29 49.32 519.29 47.58V47.48C519.29 45.81 518.12 44.95 512.92 43.69C505.63 41.92 500.32 39.91 500.32 32.83V32.74C500.32 26.29 505.45 21.74 513.38 21.74C518.4 21.5876 523.313 23.2053 527.26 26.31L522.73 32.77C519.977 30.6719 516.648 29.4678 513.19 29.32C510.62 29.32 509.32 30.42 509.32 31.87V31.97C509.32 33.83 510.63 34.56 515.96 35.82C523.62 37.62 528.25 40.19 528.25 46.57V46.67C528.25 53.74 522.73 57.86 514.59 57.86C508.794 57.9548 503.165 55.9194 498.77 52.14" fill="black"/>
</g>
<defs>
<clipPath id="clip0">
<rect width="528.25" height="80" fill="white"/>
</clipPath>
</defs>
</svg>
