<svg viewBox="0 0 2048 2052.456" xmlns="http://www.w3.org/2000/svg"><path fill="#006BA6" d="M1024 2051.072c-165.238 0-319.28-67.1-433.754-188.944-116.026-123.494-179.924-292.774-179.926-476.656 0-301.356 133.958-516.998 275.786-745.306 109.578-176.394 222.886-358.794 288.496-599.366 6.076-22.276 26.31-37.728 49.398-37.728s43.322 15.452 49.398 37.728c65.626 240.634 179.12 423.072 288.876 599.504 142 228.262 276.124 443.866 276.124 745.168 0 184.262-63.498 353.526-178.79 476.602-114.17 121.876-268.874 188.998-435.61 188.998z m0.0060000000000854925-1831.584c-69.018 181.898-161.178 330.25-250.918 474.71-139.712 224.902-260.368 419.132-260.368 691.27 0 321.078 219.804 563.2 511.28 563.2 291.888 0 512-242.122 512-563.2 0-272.054-120.8-466.234-260.676-691.078-89.9-144.508-182.224-292.922-251.318-474.902z"/></svg>