<svg xmlns="http://www.w3.org/2000/svg" width="47" height="43" viewBox="0 0 47 43">
    <g fill="none" fill-rule="evenodd" transform="translate(.5 1)">
        <path fill="#FFF" stroke="#2A2A2A" d="M19 0c4.396 0 8.444 1.493 11.663 4H39c2.21 0 4 1.79 4 4v22.8c0 2.209-1.79 4-4 4-.047 0-.095-.001-.142-.003-2.147-.076-4.405-.114-6.774-.114-.851 0-1.643.004-2.378.014C26.66 36.781 22.972 38 19 38 8.507 38 0 29.493 0 19S8.507 0 19 0z"/>
        <circle cx="19" cy="19" r="17" fill="#FFF" stroke="#E7E9ED" stroke-width=".5"/>
        <g fill="#2A2A2A">
            <path d="M.13 2.375C.05 2.268.006 2.152 0 2.028c0-.02.008-.038.023-.053.016-.015.036-.023.059-.023h.191c.047 0 .08.025.098.076.023.106.09.198.2.275.111.078.27.116.475.116.221 0 .387-.038.496-.114.11-.076.164-.18.164-.315 0-.086-.027-.157-.08-.213-.054-.055-.133-.104-.238-.146-.106-.042-.264-.093-.475-.154-.2-.055-.36-.115-.478-.178-.118-.063-.207-.141-.267-.234C.108.973.078.855.078.714c0-.137.038-.259.113-.367C.267.24.376.155.52.093.662.031.831 0 1.027 0c.203 0 .376.035.52.104.145.07.255.157.33.262.076.106.116.211.122.318 0 .022-.008.041-.024.057-.016.015-.035.022-.058.022H1.72c-.02 0-.04-.006-.058-.019-.018-.012-.031-.031-.04-.057C1.609.58 1.547.49 1.437.417c-.109-.07-.245-.106-.41-.106C.85.311.71.345.606.412.501.48.449.58.449.71.449.8.473.871.52.927c.048.055.122.105.223.148.1.043.246.092.439.148.22.06.395.121.52.182.127.06.221.136.284.226.062.09.093.206.093.348 0 .238-.093.423-.279.556-.186.133-.437.2-.755.2-.213 0-.399-.034-.556-.1-.158-.065-.277-.152-.36-.26zM4.696 2.645V.094c0-.029.008-.052.023-.069C4.735.01 4.755 0 4.781 0h.186c.029 0 .051.009.068.025.017.017.025.04.025.069v1.11h1.348V.093c0-.029.009-.052.026-.069C6.45.01 6.472 0 6.498 0h.185c.029 0 .051.009.068.025.017.017.025.04.025.069v2.55c0 .027-.009.048-.027.065-.018.017-.04.025-.066.025h-.185c-.026 0-.048-.008-.064-.025-.017-.017-.026-.038-.026-.064V1.543H5.06v1.102c0 .026-.009.047-.027.064-.018.017-.04.025-.066.025h-.186c-.026 0-.046-.008-.062-.025-.015-.017-.023-.038-.023-.064zM9.418 2.709c-.017-.017-.026-.038-.026-.064V.09c0-.026.009-.048.026-.065C9.436.01 9.46 0 9.488 0h.22c.031 0 .056.008.074.023.017.016.026.038.026.067v2.555c0 .026-.01.047-.029.064-.019.017-.043.025-.072.025h-.219c-.029 0-.052-.008-.07-.025M12.448 2.709c-.016-.017-.024-.038-.024-.064V.094c0-.029.008-.052.024-.069.016-.016.037-.025.064-.025h.177c.026 0 .046.005.06.016.013.01.027.023.04.039l1.346 2.015V.094c0-.029.008-.052.026-.069.017-.016.04-.025.066-.025h.18c.03 0 .053.009.07.025.018.017.027.04.027.069V2.64c0 .026-.009.048-.026.066-.018.018-.04.027-.066.027h-.181c-.046 0-.078-.018-.096-.054L12.789.684v1.96c0 .027-.009.048-.026.065-.018.017-.04.025-.066.025h-.185c-.027 0-.048-.008-.064-.025M17.12 2.645V.094c0-.029.008-.052.026-.069.018-.016.042-.025.072-.025h1.875c.032 0 .059.009.078.025.02.017.029.04.029.069V.27c0 .026-.01.047-.03.062-.018.016-.045.024-.077.024H17.53v.834h1.506c.033 0 .059.008.078.025.02.017.03.04.03.068v.173c0 .026-.01.048-.03.065-.02.017-.045.025-.078.025h-1.506v.83h1.561c.033 0 .06.01.079.026.02.017.029.04.029.068v.174c0 .026-.01.047-.031.064-.021.017-.047.025-.077.025h-1.874c-.03 0-.054-.008-.072-.025-.018-.017-.026-.038-.026-.064z" transform="translate(9 18)"/>
        </g>
    </g>
</svg>
