<svg xmlns="http://www.w3.org/2000/svg" width="30" height="23" viewBox="0 0 30 23">
    <path fill="#2A2A2A" fill-rule="nonzero" d="M26.809 23c.133 0 .26-.03.378-.09a.729.729 0 0 0 .285-.254c.41-.6.773-1.223 1.087-1.872.313-.649.578-1.313.794-1.992.215-.679.377-1.372.485-2.081a14.305 14.305 0 0 0-.13-5.016 14.363 14.363 0 0 0-2.22-5.211 13.918 13.918 0 0 0-1.882-2.216c-.709-.69-1.472-1.3-2.289-1.835a14.591 14.591 0 0 0-2.574-1.34c-.9-.36-1.832-.631-2.798-.816A15.647 15.647 0 0 0 15 0c-1.007 0-1.991.092-2.952.277-.961.185-1.891.457-2.79.816-.9.36-1.758.806-2.575 1.34a15.275 15.275 0 0 0-2.29 1.835 13.918 13.918 0 0 0-1.88 2.216 14.954 14.954 0 0 0-1.38 2.5 13.653 13.653 0 0 0-.848 2.71c-.19.939-.285 1.892-.285 2.86a14.305 14.305 0 0 0 .64 4.238c.21.68.475 1.343.794 1.992.318.649.683 1.273 1.094 1.872a.793.793 0 0 0 .647.344H26.81zm-.432-1.542H3.607c-.298-.46-.562-.936-.794-1.43a13.663 13.663 0 0 1-.6-1.513 12.637 12.637 0 0 1-.41-1.572c-.102-.534-.169-1.07-.2-1.61h.771c.216 0 .4-.075.555-.224a.742.742 0 0 0 .231-.554c0-.21-.077-.39-.23-.54a.768.768 0 0 0-.556-.224h-.77A12.454 12.454 0 0 1 2.79 9.157a13.156 13.156 0 0 1 2.721-3.804 13.648 13.648 0 0 1 3.924-2.65 13.187 13.187 0 0 1 4.779-1.146v.734c0 .21.077.39.231.54.154.149.34.224.555.224.216 0 .4-.075.555-.225a.725.725 0 0 0 .231-.539v-.734c1.696.09 3.286.472 4.772 1.146a13.79 13.79 0 0 1 3.923 2.65 13.084 13.084 0 0 1 2.729 3.804 12.454 12.454 0 0 1 1.187 4.634h-.771c-.216 0-.4.075-.555.225a.725.725 0 0 0-.231.539c0 .22.077.404.23.554.155.15.34.224.556.224h.77c-.03.54-.097 1.076-.2 1.61a12.637 12.637 0 0 1-1.017 3.085c-.237.494-.504.97-.802 1.43zM15 18.388c.319 0 .622-.057.91-.172a2.18 2.18 0 0 0 .755-.502c.164-.15.511-.579 1.04-1.288a291.754 291.754 0 0 0 3.492-4.792l.312-.438c.388-.546.665-.939.83-1.178a.709.709 0 0 0 .146-.502.695.695 0 0 0-.24-.472.762.762 0 0 0-.485-.217.808.808 0 0 0-.516.127c-.298.21-.85.584-1.658 1.123-.806.54-1.647 1.109-2.52 1.708-.874.598-1.675 1.157-2.405 1.677-.73.519-1.177.853-1.341 1.003-.463.45-.694.99-.694 1.625 0 .633.231 1.175.694 1.624.226.22.483.387.77.502.288.115.591.172.91.172zm0-1.527a.787.787 0 0 1-.3-.06.79.79 0 0 1-.255-.165.725.725 0 0 1-.231-.539c0-.21.077-.39.231-.54.062-.059.208-.176.44-.35.23-.176.529-.39.894-.645.364-.254.78-.544 1.248-.868.468-.325.969-.667 1.503-1.026l-1.056 1.452c-.334.46-.632.864-.894 1.213-.262.35-.483.64-.663.869-.18.23-.3.374-.362.434a.79.79 0 0 1-.254.165.787.787 0 0 1-.301.06z"/>
</svg>
