<svg xmlns="http://www.w3.org/2000/svg" width="30" height="30" viewBox="0 0 30 30">
    <path fill="#006BA6" d="M.742 30c.205 0 .381-.073.528-.22.146-.146.22-.322.22-.527 0-1.729.227-3.34.68-4.834.455-1.494 1.014-2.852 1.678-4.072.664-1.221 1.374-2.3 2.131-3.238.757-.937 1.438-1.713 2.044-2.329.44-.43.89-.847 1.355-1.252.464-.405.937-.786 1.42-1.143.484-.356.972-.693 1.465-1.01.494-.318.99-.604 1.487-.857.46-.245.916-.462 1.37-.652.454-.19.89-.35 1.31-.476.42-.127.826-.223 1.217-.286.39-.063.757-.095 1.098-.095.205 0 .381-.073.528-.22.146-.146.22-.322.22-.527 0-.215-.074-.396-.22-.542-.147-.147-.323-.22-.528-.22-.41 0-.837.037-1.281.11-.445.073-.906.18-1.385.322-.478.142-.971.318-1.48.527-.507.21-1.025.452-1.552.726-.527.283-1.055.59-1.582.922-.527.332-1.047.689-1.56 1.07-.513.38-1.016.783-1.509 1.208-.493.425-.969.872-1.428 1.34-.39.391-.815.848-1.274 1.37-.46.523-.923 1.101-1.392 1.736-.176-.283-.335-.576-.476-.879-.142-.303-.261-.615-.359-.937-.186-.606-.315-1.204-.388-1.795-.073-.59-.108-1.14-.103-1.648.005-.508.04-.967.103-1.377.063-.41.13-.737.198-.981.537-1.924 1.45-3.408 2.739-4.453 1.289-1.045 2.973-1.81 5.054-2.293 2.08-.483 4.555-.764 7.426-.842 2.871-.078 6.158-.117 9.859-.117-.45 2.353-.99 4.502-1.619 6.445-.63 1.943-1.353 3.672-2.168 5.186-.815 1.513-1.724 2.815-2.725 3.903-1 1.09-2.092 1.96-3.273 2.615-1.094.606-2.173 1.001-3.238 1.187-1.064.185-2.055.249-2.973.19-.918-.058-1.741-.19-2.469-.395-.727-.205-1.296-.391-1.706-.557-.176-.078-.352-.161-.528-.249-.175-.088-.351-.18-.527-.278-.176-.108-.364-.137-.564-.088-.2.049-.354.166-.461.351-.108.176-.137.364-.088.564.049.2.166.354.351.462.196.117.398.23.608.337.21.107.423.2.637.278.47.195 1.07.398 1.802.608.733.21 1.563.354 2.49.432.206.02.41.032.616.037.205.005.41.007.615.007.547 0 1.086-.032 1.619-.095.532-.064 1.057-.161 1.574-.293.518-.132 1.023-.298 1.516-.498.494-.2.98-.428 1.458-.681.605-.342 1.189-.73 1.75-1.165.562-.435 1.102-.923 1.62-1.465.517-.542 1.012-1.133 1.486-1.772.474-.64.925-1.326 1.355-2.058.498-.87.967-1.805 1.406-2.806.44-1 .845-2.072 1.216-3.215.371-1.142.71-2.349 1.018-3.618.308-1.27.584-2.603.828-4 .02-.107.014-.214-.015-.321-.03-.108-.078-.2-.146-.279-.069-.088-.154-.156-.257-.205C29.461.024 29.356 0 29.248 0h-.761C26.592 0 24.8.005 23.11.015c-1.69.01-3.282.048-4.776.117-1.494.068-2.89.173-4.19.315-1.298.141-2.494.344-3.588.608-.596.136-1.155.295-1.677.476-.523.18-1.016.378-1.48.593-.464.215-.898.45-1.304.703-.405.254-.783.532-1.135.835-.371.322-.715.67-1.033 1.04-.317.371-.605.77-.864 1.194-.259.425-.49.879-.696 1.362-.205.484-.385.999-.542 1.546-.097.361-.18.788-.249 1.281-.068.494-.102 1.03-.102 1.612 0 .58.044 1.191.132 1.83.088.64.23 1.283.424 1.927.147.488.335.957.564 1.406.23.45.496.884.799 1.304-.46.713-.894 1.482-1.304 2.307-.41.825-.769 1.702-1.077 2.63-.307.927-.554 1.906-.74 2.937-.185 1.03-.278 2.102-.278 3.215 0 .205.074.38.22.527.147.147.322.22.527.22z"/>
</svg>
