<svg xmlns="http://www.w3.org/2000/svg" width="30" height="30" viewBox="0 0 30 30">
    <path fill="#2A2A2A" fill-rule="nonzero" d="M21.74 3.018a.73.73 0 0 0 .285-.059.802.802 0 0 0 .256-.176c.176-.176.51-.432 1.004-.769.493-.337.984-.505 1.472-.505a.72.72 0 0 0 .527-.22.72.72 0 0 0 .22-.527.736.736 0 0 0-.22-.542.72.72 0 0 0-.527-.22c-.508 0-.991.105-1.45.315A7.39 7.39 0 0 0 22.12.98a2.109 2.109 0 0 0-.71-.695C21.102.096 20.714 0 20.245 0a.72.72 0 0 0-.527.22.736.736 0 0 0-.22.542c0 .205.073.38.22.527a.72.72 0 0 0 .527.22c.205 0 .352.032.44.095a.595.595 0 0 1 .19.212.82.82 0 0 1 .095.264c.015.088.027.147.037.176a.65.65 0 0 0 .11.417.83.83 0 0 0 .476.33c.049.01.097.015.146.015zm-8.233 5.99c.41 0 .798-.077 1.164-.234.367-.156.684-.37.953-.644a3.08 3.08 0 0 0 .637-.96c.156-.366.234-.754.234-1.164 0-.41-.078-.798-.234-1.165a3.08 3.08 0 0 0-.637-.96 2.931 2.931 0 0 0-.953-.644 2.936 2.936 0 0 0-1.164-.234 1.07 1.07 0 0 0-.132.007 1.07 1.07 0 0 1-.132.008 4.155 4.155 0 0 0-.637-1.209A4.617 4.617 0 0 0 10.409.227 4.354 4.354 0 0 0 8.995 0c-.723 0-1.406.168-2.05.505A4.487 4.487 0 0 0 5.361 1.86a3.797 3.797 0 0 0-1.611-.351 3.65 3.65 0 0 0-1.458.293 3.787 3.787 0 0 0-2 2 3.65 3.65 0 0 0-.292 1.457c0 .517.098 1.003.293 1.457a3.787 3.787 0 0 0 2 2c.454.195.94.293 1.457.293h9.756zm0-1.508H3.75c-.625 0-1.157-.22-1.597-.66-.44-.439-.659-.966-.659-1.581 0-.625.22-1.157.66-1.597.439-.44.971-.66 1.596-.66a2.224 2.224 0 0 1 1.685.763c.136.156.31.241.52.256a.68.68 0 0 0 .534-.183.733.733 0 0 0 .257-.52.726.726 0 0 0-.184-.55l.144-.188c.25-.302.553-.547.911-.734a2.93 2.93 0 0 1 1.377-.337c.42 0 .81.078 1.172.234a3.04 3.04 0 0 1 1.597 1.597c.156.361.234.752.234 1.172 0 .205.073.38.22.527a.72.72 0 0 0 .527.22.736.736 0 0 0 .542-.22.72.72 0 0 0 .22-.527c.41 0 .762.146 1.055.44.292.292.439.644.439 1.054 0 .41-.147.762-.44 1.055-.292.293-.644.439-1.054.439zm12.73-1.494a.784.784 0 0 0 .541-.22c.186-.176.523-.432 1.011-.769.488-.337.977-.505 1.465-.505a.72.72 0 0 0 .527-.22.736.736 0 0 0 .22-.542.72.72 0 0 0-.22-.527.72.72 0 0 0-.527-.22c-.508 0-.989.105-1.443.315-.454.21-.847.432-1.18.666a2.253 2.253 0 0 0-.724-.695c-.308-.19-.691-.286-1.15-.286a.736.736 0 0 0-.542.22.72.72 0 0 0-.22.527c0 .215.073.396.22.542.146.146.327.22.542.22.195 0 .337.031.425.095a.595.595 0 0 1 .19.212 1.003 1.003 0 0 1 .132.44.65.65 0 0 0 .11.417.734.734 0 0 0 .344.271c.04.02.083.034.132.044.049.01.098.015.146.015zm-4.498 4.512a.73.73 0 0 0 .286-.059.802.802 0 0 0 .256-.176c.176-.176.51-.432 1.004-.769.493-.337.984-.505 1.472-.505a.72.72 0 0 0 .527-.22.72.72 0 0 0 .22-.527.736.736 0 0 0-.22-.542.72.72 0 0 0-.527-.22c-.508 0-.991.105-1.45.315a7.39 7.39 0 0 0-1.187.666 2.109 2.109 0 0 0-.71-.695c-.308-.19-.696-.286-1.165-.286a.72.72 0 0 0-.527.22.736.736 0 0 0-.22.542c0 .205.073.38.22.527a.72.72 0 0 0 .527.22c.205 0 .352.032.44.095a.595.595 0 0 1 .19.212.82.82 0 0 1 .095.264c.015.088.027.147.037.176a.65.65 0 0 0 .11.417.83.83 0 0 0 .476.33c.049.01.097.015.146.015zM15.748 15a.72.72 0 0 0 .527-.22.72.72 0 0 0 .22-.527v-1.494a.72.72 0 0 0-.22-.528.72.72 0 0 0-.527-.22.72.72 0 0 0-.527.22.72.72 0 0 0-.22.528v1.494c0 .205.073.38.22.527a.72.72 0 0 0 .527.22zm3.75 1.509a.749.749 0 0 0 .527-.22l1.51-1.509a.72.72 0 0 0 .219-.527.72.72 0 0 0-.22-.527.728.728 0 0 0-.534-.22.728.728 0 0 0-.535.22L18.97 15.22a.728.728 0 0 0-.22.534.749.749 0 0 0 .747.754zm-7.5 0a.749.749 0 0 0 .747-.754.728.728 0 0 0-.22-.535l-1.494-1.494a.72.72 0 0 0-.527-.22.72.72 0 0 0-.527.22.72.72 0 0 0-.22.527c0 .205.073.38.22.527l1.494 1.51a.749.749 0 0 0 .527.219zM18.751 30a.765.765 0 0 0 .256-.044.709.709 0 0 0 .227-.132.708.708 0 0 0 .264-.505.702.702 0 0 0-.176-.55l-3.032-3.603 4.13-4.424a.378.378 0 0 0 .081-.073 1.03 1.03 0 0 0 .066-.088l3.706-3.97a.755.755 0 0 1 .213-.153.564.564 0 0 1 .242-.052c.078.01.153.032.227.066.073.034.139.086.197.154l3.53 4.116a.726.726 0 0 0 .513.257.726.726 0 0 0 .798-.681.795.795 0 0 0-.168-.557l-3.53-4.102a2.023 2.023 0 0 0-.696-.542 2.116 2.116 0 0 0-.842-.205 1.948 1.948 0 0 0-.857.169c-.278.122-.52.29-.725.505l-3.047 3.267a4.917 4.917 0 0 0-1.362-1.392 5.2 5.2 0 0 0-3.018-.952c-.576 0-1.133.09-1.67.27a5.112 5.112 0 0 0-2.263 1.501 5.49 5.49 0 0 0-.608.85l-2.915-3.456a2.105 2.105 0 0 0-.696-.55 1.888 1.888 0 0 0-.842-.197 1.846 1.846 0 0 0-.85.176 2.083 2.083 0 0 0-.703.527l-5.01 5.625a.741.741 0 0 0-.19.542.7.7 0 0 0 .249.513.691.691 0 0 0 .542.197.726.726 0 0 0 .513-.256l5.01-5.625a.588.588 0 0 1 .197-.154.531.531 0 0 1 .227-.051c.069 0 .14.02.213.058.073.04.139.093.197.162l11.03 13.095a.638.638 0 0 0 .257.198.792.792 0 0 0 .315.066zm-3.428-5.991l-3.061-3.618c.273-.713.73-1.29 1.37-1.729.639-.44 1.345-.66 2.116-.66.693 0 1.338.182 1.934.543a3.707 3.707 0 0 1 1.377 1.45l-3.736 4.014z"/>
</svg>
