<svg xmlns="http://www.w3.org/2000/svg" width="29" height="30" viewBox="0 0 29 30">
    <path fill="#006BA6" d="M14.748 30c.04 0 .078-.002.117-.007.04-.005.079-.013.118-.022.693-.235 1.42-.594 2.182-1.077s1.526-1.062 2.293-1.736c.766-.674 1.52-1.433 2.263-2.278.742-.844 1.435-1.745 2.08-2.702.596-.87 1.201-1.878 1.816-3.025.616-1.148 1.172-2.432 1.67-3.853.498-1.42.909-2.968 1.23-4.643.323-1.675.484-3.474.484-5.398 0-.205-.073-.381-.22-.528-.146-.146-.327-.22-.542-.22-1.054 0-2.224-.158-3.508-.475-1.284-.318-2.541-.703-3.772-1.158-1.23-.454-2.366-.932-3.406-1.435S15.715.503 15.158.132C15.031.044 14.892 0 14.741 0c-.151 0-.29.044-.418.132-.556.37-1.352.808-2.387 1.31-1.035.504-2.168.982-3.399 1.436-1.23.455-2.49.84-3.779 1.158-1.29.317-2.46.476-3.516.476-.205 0-.38.073-.527.22-.146.146-.22.322-.22.527 0 1.924.159 3.723.476 5.398.318 1.675.728 3.222 1.23 4.643.504 1.421 1.063 2.705 1.678 3.853.615 1.147 1.216 2.156 1.802 3.025.654.957 1.352 1.858 2.095 2.702.742.845 1.496 1.604 2.263 2.278.766.674 1.53 1.253 2.292 1.736.762.483 1.49.842 2.183 1.077.039.01.078.017.117.022.04.005.078.007.117.007zm0-1.538c-.508-.195-1.076-.493-1.706-.894-.63-.4-1.287-.9-1.97-1.501-.684-.6-1.38-1.296-2.088-2.088-.708-.79-1.394-1.674-2.058-2.65-.547-.792-1.101-1.712-1.663-2.762-.561-1.05-1.076-2.217-1.545-3.501-.469-1.284-.862-2.686-1.18-4.204-.317-1.519-.495-3.147-.534-4.885.615-.04 1.238-.115 1.868-.227.63-.113 1.252-.25 1.867-.41.616-.162 1.209-.335 1.78-.52.572-.186 1.096-.367 1.575-.543.537-.205 1.07-.417 1.597-.637.527-.22 1.032-.442 1.516-.666.483-.225.942-.45 1.377-.674.434-.225.822-.445 1.164-.66.342.215.728.435 1.157.66.43.224.89.449 1.377.674.489.224.997.446 1.524.666.527.22 1.055.432 1.582.637.488.176 1.018.357 1.59.542.57.186 1.161.36 1.772.52.61.161 1.233.298 1.867.41.635.113 1.26.189 1.875.228-.048 1.738-.23 3.366-.542 4.885-.312 1.518-.703 2.92-1.171 4.204-.47 1.284-.987 2.451-1.553 3.5-.567 1.05-1.123 1.971-1.67 2.762-.654.977-1.336 1.86-2.044 2.651-.708.792-1.403 1.487-2.087 2.088-.684.6-1.34 1.101-1.97 1.501-.63.4-1.199.699-1.707.894zM13.24 18.75c.098 0 .193-.017.286-.051.093-.034.178-.09.256-.169l7.5-7.5c.147-.146.22-.322.22-.527 0-.205-.073-.38-.22-.527-.146-.147-.324-.22-.534-.22-.21 0-.388.073-.535.22l-6.973 6.972-2.46-2.475c-.147-.147-.325-.22-.535-.22-.21 0-.388.073-.535.22-.146.146-.22.324-.22.534 0 .21.074.389.22.535l3.003 2.988c.078.078.164.135.256.169.093.034.184.051.271.051z"/>
</svg>
