<svg width="41" height="41" viewBox="0 0 41 41" fill="none" xmlns="http://www.w3.org/2000/svg">
<g clip-path="url(#clip0)">
<path d="M32.7 19.3C32.9 20.3 33 21.3 33 22.4C33 24.1 32.7 25.7 32.2 27.2C29.4 31 25 33.4 20 33.4C16.5 33.4 13.1 32.1 10.6 30C8.69999 27.4 7.59999 24.3 7.59999 20.8C7.59999 19.7 7.69999 18.6 7.89999 17.6C8.29999 15.9 8.89999 14.2 9.79999 12.8C11.3 10.4 13.4 8.4 15.9 7.1C16.5 7.1 17.2 7 17.9 7C22.1 7 25.9 8.7 28.6 11.5C30.6 13.7 32.1 16.3 32.7 19.3Z" fill="#C2DEEE"/>
<path d="M22.7 36.3C23.4 36.3 24 36.2 24.6 36.2C25.6 35.7 26.5 35.1 27.3 34.4C25.1 35.4 22.6 36 20 36C19.8 36 19.6 36 19.5 36C20.5 36.2 21.6 36.3 22.7 36.3ZM25.3 38.5C23 39.6 20.5 40.2 17.8 40.2C14.4 40.2 11.2 39.2 8.6 37.5C6.3 36 4.4 34 3 31.7L2.9 39.6H0.5V23.6L2.8 23.4C3.1 27.2 4.7 30.7 7.2 33.2C9.8 35.8 13.3 37.5 17.2 37.7C13.9 36.6 11 34.5 8.9 31.8C5.8 29.1 3.6 25.4 2.8 21.4L5.2 20.8C5.2 19.6 5.3 18.4 5.6 17.2L8 17.7C7.8 18.7 7.7 19.8 7.7 20.9C7.7 24.4 8.8 27.5 10.7 30.1C13.3 32.2 16.6 33.5 20.1 33.5C25.1 33.5 29.5 31.1 32.3 27.3C32.8 25.7 33.1 24.2 33.1 22.5C33.1 21.4 33 20.4 32.8 19.4L35 19C35.1 19.2 35.1 19.4 35.1 19.6C35.1 19.4 35.1 19.1 35.1 18.9L37.5 19C37.3 22.5 36.2 25.8 34.3 28.5C33.7 30.2 32.8 31.9 31.8 33.3L33.4 35.1C31 36.8 28.3 38 25.3 38.5Z" fill="white"/>
<path d="M15.2 4.8C17.5 3.7 20 3.1 22.7 3.1C22.9 3.1 23 3.1 23.2 3.1C22.2 2.9 21.1 2.8 20 2.8C16.3 2.8 13 4.1 10.4 6.3C11.9 5.6 13.5 5.1 15.2 4.8ZM0.399994 22.5C0.399994 18.6 1.59999 15.1 3.59999 12.2C4.79999 8.7 7.09999 5.8 9.99999 3.7C12.8 1.7 16.3 0.400002 20.1 0.400002C25.6 0.400002 30.7 3 33.9 7.2C37.5 10.2 39.8 14.6 40.2 19.4V37.8H37.8V29.8C36.6 31.8 35.1 33.5 33.3 34.9L31.7 33.1C33.1 32 34.3 30.7 35.3 29.2C36.7 27 37.5 24.4 37.6 21.5V20.1C37.6 19.5 37.5 18.9 37.4 18.4C37.4 18.5 37.4 18.7 37.4 18.8L35 18.7C35 18.4 35 18.2 35 18C35 14.5 33.9 11.4 32 8.8C29.6 6.8 26.5 5.6 23.3 5.5C26.4 6.5 29.1 8.4 31.1 10.9C33 13.1 34.3 15.9 34.9 18.9L32.7 19.3C32.1 16.3 30.6 13.6 28.6 11.5C25.8 8.8 22 7 17.9 7C17.2 7 16.5 7.1 16 7.2C13.5 8.5 11.4 10.5 9.89999 12.9C8.99999 14.4 8.29999 16 7.99999 17.7L5.59999 17.2C6.19999 14.6 7.29999 12.2 8.79999 10.1C7.59999 11 6.59999 12 5.69999 13.2C5.19999 14.8 4.99999 16.4 4.99999 18.2C4.99999 19.1 5.09999 20 5.19999 20.8L2.79999 21.4C2.79999 21.7 2.79999 22 2.79999 22.4C2.79999 22.8 2.79999 23.1 2.79999 23.5L0.499994 23.7C0.399994 23.1 0.399994 22.8 0.399994 22.5Z" fill="white"/>
<path d="M0.499994 23.6C0.399994 23.1 0.399994 22.8 0.399994 22.5C0.399994 18.6 1.59999 15.1 3.59999 12.2C4.79999 8.7 7.09999 5.8 9.99999 3.7C12.8 1.7 16.3 0.400002 20.1 0.400002C25.6 0.400002 30.7 3 33.9 7.2C37.5 10.2 39.8 14.6 40.2 19.4V37.8H37.8V29.8C36.6 31.8 35.1 33.5 33.3 34.9C31 36.7 28.3 37.9 25.3 38.4C23 39.5 20.5 40.1 17.8 40.1C14.4 40.1 11.2 39.1 8.59999 37.4C6.29999 36 4.39999 34 2.99999 31.7L2.89999 39.6H0.499994V23.6Z" stroke="#2A2A2A" stroke-width="0.81"/>
<path d="M2.79999 21.4C2.79999 21.7 2.79999 22 2.79999 22.4C2.79999 22.8 2.79999 23.1 2.79999 23.5C3.09999 27.3 4.69999 30.8 7.19999 33.3C9.79999 35.9 13.3 37.6 17.2 37.8C13.9 36.7 11 34.6 8.89999 31.9C5.79999 29.1 3.59999 25.4 2.79999 21.4Z" stroke="#2A2A2A" stroke-width="0.81"/>
<path d="M27.3 34.4C25.1 35.4 22.6 36 20 36C19.8 36 19.6 36 19.5 36C20.5 36.2 21.6 36.3 22.7 36.3C23.4 36.3 24 36.2 24.6 36.2C25.6 35.7 26.5 35 27.3 34.4Z" stroke="#2A2A2A" stroke-width="0.81"/>
<path d="M32.7 19.3C32.1 16.3 30.6 13.6 28.6 11.5C25.8 8.8 22 7 17.9 7C17.2 7 16.5 7.1 16 7.2C13.5 8.5 11.4 10.5 9.9 12.9C9 14.4 8.3 16 8 17.7C7.8 18.7 7.7 19.8 7.7 20.9C7.7 24.4 8.8 27.5 10.7 30.1C13.3 32.2 16.6 33.5 20.1 33.5C25.1 33.5 29.5 31.1 32.3 27.3C32.8 25.7 33.1 24.2 33.1 22.5C33 21.4 32.9 20.4 32.7 19.3Z" stroke="#2A2A2A" stroke-width="0.81"/>
<path d="M31.7 33.2C33.1 32.1 34.3 30.8 35.3 29.3C36.7 27.1 37.5 24.5 37.6 21.6V20.2C37.6 19.6 37.5 19 37.4 18.5C37.4 18.6 37.4 18.8 37.4 18.9C37.2 22.4 36.1 25.7 34.2 28.4C33.7 30.1 32.8 31.8 31.7 33.2Z" stroke="#2A2A2A" stroke-width="0.81"/>
<path d="M5.6 17.2C6.2 14.6 7.3 12.2 8.8 10.1C7.6 11 6.6 12 5.7 13.2C5.2 14.8 5 16.4 5 18.2C5 19.1 5.1 20 5.2 20.8C5.2 19.6 5.3 18.4 5.6 17.2Z" stroke="#2A2A2A" stroke-width="0.81"/>
<path d="M35.1 18.8C35.1 18.5 35.1 18.3 35.1 18.1C35.1 14.6 34 11.5 32.1 8.9C29.7 6.9 26.6 5.7 23.4 5.6C26.5 6.6 29.2 8.5 31.2 11C33.1 13.2 34.4 16 35 19C35.1 19.2 35.1 19.4 35.1 19.6C35 19.3 35.1 19.1 35.1 18.8Z" stroke="#2A2A2A" stroke-width="0.81"/>
<path d="M20 2.8C16.3 2.8 13 4.1 10.4 6.3C11.9 5.6 13.5 5.1 15.2 4.8C17.5 3.7 20 3.1 22.7 3.1C22.9 3.1 23 3.1 23.2 3.1C22.2 2.9 21.1 2.8 20 2.8Z" stroke="#2A2A2A" stroke-width="0.81"/>
</g>
<defs>
<clipPath id="clip0">
<rect width="40.6" height="40.6" fill="white"/>
</clipPath>
</defs>
</svg>
