<svg id="Layer_1" data-name="Layer 1" xmlns="http://www.w3.org/2000/svg" viewBox="0 0 1535 216.46"><defs><style>.cls-1{fill:#0a9600}</style></defs><path class="cls-1" d="M577 84.58v95.8h-35v-95.8h-35.38v-30.5h105.73v30.5zM694.06 142.32h-55.57c1.09 10.46 7.22 15.15 16.06 15.15 8.3 0 15.16-1.81 24.54-6.68l12.44 20.75c-11.72 6.85-23.81 10.82-38.6 10.82-28.51 0-44.21-20.21-44.21-49.26 0-32.65 18.4-49.43 43.3-49.43 26 0 42.23 17.14 42.23 52.32a59.2 59.2 0 01-.19 6.33zm-42.94-34.65c-7.4 0-11.54 5-12.63 14.43h27.07c-1.63-9.56-4.88-14.43-14.44-14.43zM754.48 182.36c-27.78 0-44.38-17.67-44.38-49.61 0-29 14.8-49.08 45.1-49.08 17.87 0 28.15 8.3 36.45 21.65l-22.37 17C764.77 114 761.7 110 754.67 110c-8.31 0-12.46 8.31-12.46 23.28S746.72 156 755.56 156c6.14 0 10.47-3.43 16.42-12.27l20.57 16.06c-11 16.26-21.29 22.57-38.07 22.57zM865.24 180.38v-53.77c0-12.27-4.15-15.51-10.83-15.51-6.86 0-11 3.24-11 15.15v54.13h-32.48V61.84l32.48-13V92c6-4.51 12.63-8.3 23.81-8.3 20.75 0 30.68 13.89 30.68 38.79v57.92z"/><path d="M975.64 182.36c-37.53 0-57.56-27.78-57.56-65.13 0-40.59 23.81-65.13 57.73-65.13 31 0 43.31 13.35 52 37.17L996 101.72c-4.52-11.73-8.85-19.13-20.39-19.13-14.62 0-20.93 14.61-20.93 34.64 0 19.31 6.13 34.64 21.29 34.64 11 0 15.69-6 22.55-17.86l29.59 15.7c-8.45 16.6-22.53 32.65-52.47 32.65zM1108 121.38c-4.15-4.51-8.84-7.94-15.15-7.94-8 0-12.82 3.79-12.82 15.34v51.6h-32.47V85.66h32.47v6.85c5.59-5.41 11.91-8.84 20.22-8.84 6.85 0 11.54 1.62 15.33 4zM1185.23 180.38v-6.32c-5.77 4.51-12.63 8.3-23.63 8.3-20.75 0-30.67-13.88-30.67-38.79V85.66h32.66v53.77c0 12.26 4.14 15.51 10.82 15.51s10.82-3.25 10.82-15.16V85.66h32.66v94.72zM1295.63 180.38v-53.77c0-12.27-4.15-15.51-10.82-15.51-6.86 0-11 3.24-11 15.15v54.13h-32.48V85.66h32.48V92c6-4.51 12.63-8.3 23.81-8.3 20.75 0 30.68 13.89 30.68 38.79v57.92zM1391.58 182.36c-27.78 0-44.38-17.67-44.38-49.61 0-29 14.8-49.08 45.11-49.08 17.86 0 28.14 8.3 36.44 21.65l-22.37 17c-4.51-8.3-7.58-12.27-14.61-12.27-8.31 0-12.46 8.31-12.46 23.28s4.51 22.73 13.36 22.73c6.13 0 10.46-3.43 16.41-12.27l20.57 16.06c-11 16.2-21.29 22.51-38.07 22.51zM1502.34 180.38v-53.77c0-12.27-4.15-15.51-10.82-15.51-6.87 0-11 3.24-11 15.15v54.13H1448V61.84l32.48-13V92c6-4.51 12.63-8.3 23.81-8.3 20.75 0 30.68 13.89 30.68 38.79v57.92z"/><g><path class="cls-1" d="M0 0v72.15h72.15v144.31h72.16V72.15h72.15V0H0zM288.61 144.31V72.15h-72.15v144.31h216.46v-72.15H288.61zM288.61 0h144.31v72.15H288.61z"/></g></svg>