<svg xmlns="http://www.w3.org/2000/svg" width="24" height="40" viewBox="0 0 24 40">
    <path fill="#006BA6" d="M18.466 27.459c1.856-1.496 3.28-3.74 4.013-6.469.733-.132 1.251-.748 1.251-1.496V17.91c0-.836-.69-1.54-1.51-1.54h-1.51c.043-.088.043-.176.043-.264l.906-10.913c.475-.265.777-.749.777-1.32V1.54c0-.836-.69-1.54-1.51-1.54H2.804c-.82 0-1.51.704-1.51 1.54v2.288c0 .572.302 1.056.777 1.32l.906 10.826c0 .088.043.176.043.264H1.51c-.82 0-1.51.704-1.51 1.54v1.584c0 .748.56 1.408 1.251 1.496.734 2.728 2.2 5.017 4.013 6.469L4.099 38.372c-.043.44.086.924.345 1.232.216.264.518.396.82.396H18.38c.302 0 .604-.132.82-.396.259-.308.388-.748.345-1.232l-1.079-10.913zM2.804 1.333h18.122c.129 0 .215.088.215.22v2.2c0 .133-.086.22-.215.22H2.804c-.129 0-.215-.087-.215-.22v-2.2c0-.132.13-.22.215-.22zm1.392 14.605L3.333 5.333h17.215l-.863 10.605c0 .22-.215.396-.431.396H4.628c-.216-.044-.389-.176-.432-.396zm-2.863 1.884c0-.132.087-.22.216-.22h20.753c.13 0 .216.088.216.22v1.76c0 .132-.087.22-.216.22H1.592c-.13 0-.216-.088-.216-.22v-1.76h-.043zm1.334 3.3H21.09c-1.251 4.18-4.315 7.04-7.723 7.04H10.39c-3.409 0-6.472-2.86-7.723-7.04zm15.265 17.602H5.333v-.132l1.079-10.165c1.165.66 2.46 1.056 3.797 1.056h2.89c1.338 0 2.632-.352 3.797-1.056l1.079 10.165c0 .088 0 .132-.043.132z"/>
</svg>
