<?xml version="1.0" encoding="UTF-8" standalone="no"?>
<svg
   xmlns:dc="http://purl.org/dc/elements/1.1/"
   xmlns:cc="http://creativecommons.org/ns#"
   xmlns:rdf="http://www.w3.org/1999/02/22-rdf-syntax-ns#"
   xmlns:svg="http://www.w3.org/2000/svg"
   xmlns="http://www.w3.org/2000/svg"
   xmlns:sodipodi="http://sodipodi.sourceforge.net/DTD/sodipodi-0.dtd"
   xmlns:inkscape="http://www.inkscape.org/namespaces/inkscape"
   width="29"
   height="29"
   viewBox="0 0 29 29"
   version="1.1"
   id="svg4"
   sodipodi:docname="wand.svg"
   inkscape:version="0.92.4 (5da689c313, 2019-01-14)">
  <metadata
     id="metadata10">
    <rdf:RDF>
      <cc:Work
         rdf:about="">
        <dc:format>image/svg+xml</dc:format>
        <dc:type
           rdf:resource="http://purl.org/dc/dcmitype/StillImage" />
      </cc:Work>
    </rdf:RDF>
  </metadata>
  <defs
     id="defs8" />
  <sodipodi:namedview
     pagecolor="#ffffff"
     bordercolor="#666666"
     borderopacity="1"
     objecttolerance="10"
     gridtolerance="10"
     guidetolerance="10"
     inkscape:pageopacity="0"
     inkscape:pageshadow="2"
     inkscape:window-width="854"
     inkscape:window-height="480"
     id="namedview6"
     showgrid="false"
     inkscape:zoom="8.137931"
     inkscape:cx="40.980932"
     inkscape:cy="14.5"
     inkscape:window-x="0"
     inkscape:window-y="27"
     inkscape:window-maximized="0"
     inkscape:current-layer="svg4" />
  <path
     fill="#006BA6"
     d="M17.751 10.503c.205 0 .381-.073.528-.22.146-.146.22-.322.22-.527 0-.518.097-1.004.292-1.458.196-.454.464-.852.806-1.194.342-.341.74-.61 1.194-.805.454-.195.94-.293 1.457-.293.205 0 .381-.073.528-.22.146-.146.22-.322.22-.527 0-.205-.074-.381-.22-.528-.147-.146-.323-.22-.528-.22-.517 0-1.003-.1-1.457-.3-.454-.2-.852-.468-1.194-.805-.342-.337-.61-.733-.806-1.187-.195-.454-.293-.94-.293-1.457 0-.215-.073-.396-.22-.542-.146-.147-.322-.22-.527-.22-.215 0-.395.073-.542.22-.146.146-.22.327-.22.542 0 .517-.097 1.003-.293 1.457-.195.454-.46.85-.798 1.187-.337.337-.735.605-1.194.805-.459.2-.947.3-1.465.3-.205 0-.38.074-.527.22-.146.147-.22.323-.22.528 0 .205.074.38.22.527.147.147.322.22.527.22.518 0 1.006.098 1.465.293.46.195.857.464 1.194.805.337.342.603.74.798 1.194.196.454.293.94.293 1.458 0 .205.074.38.22.527.147.147.327.22.542.22zM5.74 7.5c.215 0 .396-.073.542-.22.147-.146.22-.322.22-.527 0-.615.22-1.143.66-1.582.439-.44.966-.66 1.581-.66.205 0 .381-.073.528-.219.146-.146.22-.327.22-.542 0-.205-.074-.38-.22-.527-.147-.147-.323-.22-.528-.22-.615 0-1.142-.22-1.582-.66-.44-.439-.659-.966-.659-1.581 0-.215-.073-.396-.22-.542C6.135.073 5.954 0 5.74 0c-.205 0-.38.073-.527.22-.146.146-.22.327-.22.542 0 .615-.22 1.142-.659 1.582-.44.44-.967.659-1.582.659-.215 0-.395.073-.542.22-.146.146-.22.322-.22.527 0 .215.074.396.22.542.147.146.327.22.542.22.615 0 1.143.22 1.582.659.44.44.66.967.66 1.582 0 .205.073.38.22.527.146.147.321.22.526.22zm0-2.988c-.107-.147-.222-.283-.344-.41-.122-.127-.256-.245-.403-.352.147-.107.281-.222.403-.344.122-.122.237-.257.344-.403.108.146.225.28.352.403.127.122.264.237.41.344-.146.107-.283.225-.41.352-.127.127-.244.263-.352.41zM17.751 7.06c-.224-.372-.488-.708-.79-1.011-.304-.303-.64-.567-1.012-.791.372-.225.708-.488 1.011-.791.303-.303.567-.64.791-1.011.215.371.476.708.784 1.01.307.304.642.567 1.003.792-.361.224-.696.488-1.003.79-.308.304-.569.64-.784 1.012zm7.5 21.577c.293 0 .579-.059.857-.176.278-.117.52-.278.725-.483l.88-.88c.214-.214.378-.458.49-.732.112-.273.168-.561.168-.864 0-.303-.056-.59-.168-.864-.112-.274-.276-.513-.49-.718L11.832 8.042c-.205-.215-.447-.378-.725-.49-.278-.113-.564-.17-.857-.17-.303 0-.59.057-.864.17-.274.112-.518.275-.733.49l-.878.879c-.215.205-.379.444-.491.718-.112.273-.169.561-.169.864 0 .303.057.59.169.864.112.274.276.518.49.733l15.88 15.879c.214.205.458.366.732.483.273.117.561.176.864.176zm-14.253-15.44L8.83 11.03c-.146-.146-.22-.322-.22-.527 0-.205.074-.38.22-.527l.88-.88c.077-.068.16-.121.248-.16.088-.04.186-.059.293-.059.098 0 .193.02.286.059.093.039.173.092.242.16l2.153 2.154-1.934 1.948zM2.751 15c.205 0 .381-.073.528-.22.146-.146.22-.322.22-.527 0-.205.072-.38.219-.527.146-.147.322-.22.527-.22.205 0 .381-.073.528-.22.146-.146.22-.322.22-.527 0-.205-.074-.381-.22-.528-.147-.146-.323-.22-.528-.22-.205 0-.38-.073-.527-.219-.147-.146-.22-.327-.22-.542 0-.205-.073-.38-.22-.527-.146-.147-.322-.22-.527-.22-.215 0-.395.073-.542.22-.146.146-.22.322-.22.527 0 .215-.073.396-.22.542-.146.146-.322.22-.527.22-.205 0-.38.073-.527.22-.146.146-.22.322-.22.527 0 .205.074.38.22.527.147.147.322.22.527.22.205 0 .381.073.528.22.146.146.22.322.22.527 0 .205.073.38.22.527.146.147.326.22.541.22zm22.5 12.129c-.107 0-.205-.017-.293-.051-.088-.035-.17-.09-.249-.169L12.053 14.253 14 12.319l12.656 12.657c.147.146.22.322.22.527 0 .205-.073.38-.22.527l-.878.88c-.069.077-.15.133-.242.168-.093.034-.188.05-.286.05zM5.74 22.5c.215 0 .396-.073.542-.22.147-.146.22-.322.22-.527 0-.615.22-1.143.66-1.582.439-.44.966-.66 1.581-.66.205 0 .381-.073.528-.219.146-.146.22-.327.22-.542 0-.205-.074-.38-.22-.527-.147-.147-.323-.22-.528-.22-.615 0-1.142-.22-1.582-.66-.44-.439-.659-.966-.659-1.581 0-.215-.073-.396-.22-.542-.146-.147-.327-.22-.542-.22-.205 0-.38.073-.527.22-.146.146-.22.327-.22.542 0 .615-.22 1.142-.659 1.582-.44.44-.967.659-1.582.659-.215 0-.395.073-.542.22-.146.146-.22.322-.22.527 0 .215.074.396.22.542.147.146.327.22.542.22.615 0 1.143.22 1.582.659.44.44.66.967.66 1.582 0 .205.073.38.22.527.146.147.321.22.526.22zm0-2.988c-.107-.147-.222-.283-.344-.41-.122-.127-.256-.245-.403-.352.147-.107.281-.222.403-.344.122-.122.237-.257.344-.403.108.146.225.28.352.403.127.122.264.237.41.344-.146.107-.283.225-.41.352-.127.127-.244.263-.352.41z"
     id="path2"
     style="fill:#000000" />
</svg>
