<svg viewBox="0 0 401 82" xmlns="http://www.w3.org/2000/svg"><path fill="#231f20" d="M0 0h80.25v82H0V0m5.91 12.87C9.49 29.54 12.7 46.3 16.15 63c.63 2 .24 4.64 2.18 5.98 3.5.56 7.09.42 10.62.18 1.92.06 2.38-2.2 2.73-3.65 2.41-11.89 5.03-23.74 7.43-35.63.19-1.1.53-2.17 1.05-3.16 2.99 12.76 5.46 25.63 8.24 38.43.38 1.36.46 3.04 1.8 3.87 3.82.46 7.74.5 11.55-.03 1.37-.81 1.44-2.48 1.79-3.86 3.53-17.41 6.82-34.89 10.55-52.26-3.37.02-6.73.01-10.09.01-2.68 15.15-4.83 30.4-7.79 45.5-3.33-12.81-5.56-25.93-8.46-38.86-.66-2.21-.36-5.43-2.78-6.55a71.43 71.43 0 00-8.9 0c-1.68.14-2.06 2.13-2.39 3.45-2.68 12.82-5.49 25.61-8.11 38.43a23.27 23.27 0 01-1.12 3.46 1886.3 1886.3 0 01-7.56-45.43c-3.66-.01-7.32.01-10.98-.01z"/><path fill="#fff" d="M80.25 0h79.5v82h-79.5V0m20.36 12.33c-.04 3.36-.04 6.71 0 10.07 4.57.03 9.14.01 13.71.01-.02 12.39-.02 24.79 0 37.18-4.57 0-9.14-.02-13.71.01-.04 3.36-.04 6.71.01 10.07 12.92.03 25.84.03 38.76 0 .05-3.35.04-6.71.02-10.06-4.58-.04-9.15-.02-13.72-.02.02-12.39.02-24.79 0-37.18 4.57 0 9.14.02 13.71-.01.04-3.36.04-6.72-.01-10.07-12.92-.03-25.84-.03-38.77 0z"/><path fill="#231f20" d="M159.75 0H240v82h-80.25V0m18.13 12.88v56.24H189v-22c6.03.02 12.06-.03 18.09.01 2.2-.21 4.82 1.36 4.77 3.78.28 6.08.8 12.14 1.18 18.21l10.58.01c-1-6.88.23-13.99-1.71-20.73-1-3.53-4.9-4.32-7.94-5.2 2.26-1.2 5.16-1.31 6.8-3.51 2.38-3.02 2.55-7.05 2.56-10.73-.04-4.3.06-9.03-2.67-12.64-2.18-3-6.26-3.44-9.68-3.44h-33.1z"/><path fill="#fff" d="M240 0h79.75v82H240V0m14.34 12.34a558.9 558.9 0 00-.02 10.03c2.55.05 5.1.05 7.65.03.05 12.4.05 24.8 0 37.2-2.55-.02-5.09-.02-7.64.01-.03 3.35-.04 6.7.01 10.05 16.08.05 32.15.05 48.23 0 .08-6.63.03-13.26.03-19.89-3.49-.03-6.98-.03-10.47.01v9.81c-6.36.01-12.72-.04-19.08.03-.1-4.91-.03-9.83-.05-14.74h15v-9.57h-15c0-4.3-.01-8.6.01-12.9h18.59c-.02 2.86-.02 5.72-.01 8.59h10.29c-.01-6.22.01-12.44-.01-18.66-15.85-.05-31.69-.05-47.53 0z"/><path fill="#231f20" d="M319.75 0H401v82h-81.25V0m18.13 12.88v56.24c9.35-.02 18.69.04 28.04-.03 5.76-.11 12.47-1.18 15.94-6.34 4.05-6.48 3.44-14.41 4.15-21.72-.72-7.32-.08-15.28-4.15-21.78-3.23-4.83-9.41-6.1-14.84-6.3-9.71-.16-19.43-.03-29.14-.07zM100.61 12.33c12.93-.03 25.85-.03 38.77 0 .05 3.35.05 6.71.01 10.07-4.57.03-9.14.01-13.71.01.02 12.39.02 24.79 0 37.18 4.57 0 9.14-.02 13.72.02.02 3.35.03 6.71-.02 10.06-12.92.03-25.84.03-38.76 0a375.6 375.6 0 01-.01-10.07c4.57-.03 9.14-.01 13.71-.01-.02-12.39-.02-24.79 0-37.18-4.57 0-9.14.02-13.71-.01-.04-3.36-.04-6.71 0-10.07zM254.34 12.34c15.84-.05 31.68-.05 47.53 0 .02 6.22 0 12.44.01 18.66h-10.29c-.01-2.87-.01-5.73.01-8.59h-18.59c-.02 4.3-.01 8.6-.01 12.9h15v9.57h-15c.02 4.91-.05 9.83.05 14.74 6.36-.07 12.72-.02 19.08-.03v-9.81c3.49-.04 6.98-.04 10.47-.01 0 6.63.05 13.26-.03 19.89-16.08.05-32.15.05-48.23 0-.05-3.35-.04-6.7-.01-10.05 2.55-.03 5.09-.03 7.64-.01.05-12.4.05-24.8 0-37.2-2.55.02-5.1.02-7.65-.03-.02-3.34-.02-6.69.02-10.03z"/><path fill="#fff" d="M5.91 12.87c3.66.02 7.32 0 10.98.01a1886.3 1886.3 0 007.56 45.43c.45-1.13.85-2.27 1.12-3.46 2.62-12.82 5.43-25.61 8.11-38.43.33-1.32.71-3.31 2.39-3.45 2.96-.19 5.94-.18 8.9 0 2.42 1.12 2.12 4.34 2.78 6.55 2.9 12.93 5.13 26.05 8.46 38.86 2.96-15.1 5.11-30.35 7.79-45.5 3.36 0 6.72.01 10.09-.01-3.73 17.37-7.02 34.85-10.55 52.26-.35 1.38-.42 3.05-1.79 3.86a45.1 45.1 0 01-11.55.03c-1.34-.83-1.42-2.51-1.8-3.87-2.78-12.8-5.25-25.67-8.24-38.43a10.7 10.7 0 00-1.05 3.16c-2.4 11.89-5.02 23.74-7.43 35.63-.35 1.45-.81 3.71-2.73 3.65-3.53.24-7.12.38-10.62-.18-1.94-1.34-1.55-3.98-2.18-5.98C12.7 46.3 9.49 29.54 5.91 12.87zM177.88 12.88h33.1c3.42 0 7.5.44 9.68 3.44 2.73 3.61 2.63 8.34 2.67 12.64-.01 3.68-.18 7.71-2.56 10.73-1.64 2.2-4.54 2.31-6.8 3.51 3.04.88 6.94 1.67 7.94 5.2 1.94 6.74.71 13.85 1.71 20.73l-10.58-.01c-.38-6.07-.9-12.13-1.18-18.21.05-2.42-2.57-3.99-4.77-3.78-6.03-.04-12.06.01-18.09-.01v22h-11.12V12.88M189 22.12v16.29c6.65-.09 13.32.2 19.96-.14 3.57-.21 3.62-4.5 3.76-7.18-.11-2.95.44-6.87-2.31-8.82-7.12-.37-14.27-.04-21.41-.15zM337.88 12.88c9.71.04 19.43-.09 29.14.07 5.43.2 11.61 1.47 14.84 6.3 4.07 6.5 3.43 14.46 4.15 21.78-.71 7.31-.1 15.24-4.15 21.72-3.47 5.16-10.18 6.23-15.94 6.34-9.35.07-18.69.01-28.04.03V12.88M349 22.12v37.76c5.69-.01 11.38.01 17.08.01 2.73.05 6.04-.67 7.32-3.39 1.91-4.21 1.44-8.95 1.6-13.44-.21-5.62.59-11.48-1.3-16.88-.85-2.76-3.92-4.07-6.61-4.04-6.03-.06-12.06.01-18.09-.02z"/><path fill="#231f20" d="M189 22.12c7.14.11 14.29-.22 21.41.15 2.75 1.95 2.2 5.87 2.31 8.82-.14 2.68-.19 6.97-3.76 7.18-6.64.34-13.31.05-19.96.14V22.12zM349 22.12c6.03.03 12.06-.04 18.09.02 2.69-.03 5.76 1.28 6.61 4.04 1.89 5.4 1.09 11.26 1.3 16.88-.16 4.49.31 9.23-1.6 13.44-1.28 2.72-4.59 3.44-7.32 3.39-5.7 0-11.39-.02-17.08-.01V22.12z"/></svg>